<svg width="170" height="180" viewBox="0 0 170 180" fill="none" xmlns="http://www.w3.org/2000/svg">
<path d="M137.818 60L107.636 90H130.273C130.273 114.825 109.975 135 85 135C77.3791 135 70.1355 133.125 63.8727 129.75L52.8564 140.7C62.1373 146.55 73.1536 150 85 150C118.351 150 145.364 123.15 145.364 90H168L137.818 60ZM39.7273 90C39.7273 65.175 60.0245 45 85 45C92.6209 45 99.8645 46.875 106.127 50.25L117.144 39.3C107.863 33.45 96.8464 30 85 30C51.6491 30 24.6364 56.85 24.6364 90H2L32.1818 120L62.3636 90H39.7273Z" fill="black"/>
</svg>
